<mxfile host="app.diagrams.net" modified="2022-02-03T10:34:34.297Z" agent="5.0 (X11)" etag="PKxEKPKL1Vwt8781ysMk" version="15.8.4" type="github">
  <diagram id="CIw4tXAHv_-aNhbZJtuN" name="Page-1">
    <mxGraphModel dx="1422" dy="1108" grid="1" gridSize="10" guides="1" tooltips="1" connect="1" arrows="1" fold="1" page="0" pageScale="1" pageWidth="827" pageHeight="1169" math="0" shadow="0">
      <root>
        <mxCell id="0" />
        <mxCell id="1" parent="0" />
        <mxCell id="5DaIw1ma8Wy_vV2Rz7nk-1" value="Démarrer serveur" style="rounded=0;whiteSpace=wrap;html=1;" parent="1" vertex="1">
          <mxGeometry x="140" y="305" width="120" height="30" as="geometry" />
        </mxCell>
        <mxCell id="5DaIw1ma8Wy_vV2Rz7nk-2" value="Etablissement de la connexion avec le moniteur" style="rounded=0;whiteSpace=wrap;html=1;" parent="1" vertex="1">
          <mxGeometry x="370" y="300" width="120" height="50" as="geometry" />
        </mxCell>
        <mxCell id="5DaIw1ma8Wy_vV2Rz7nk-3" value="Traiter les messages en provenance du moniteur" style="rounded=0;whiteSpace=wrap;html=1;" parent="1" vertex="1">
          <mxGeometry x="530" y="180" width="150" height="40" as="geometry" />
        </mxCell>
        <mxCell id="5DaIw1ma8Wy_vV2Rz7nk-4" value="Démarrer robot sans WD" style="rounded=0;whiteSpace=wrap;html=1;" parent="1" vertex="1">
          <mxGeometry x="580" y="295" width="150" height="40" as="geometry" />
        </mxCell>
        <mxCell id="5DaIw1ma8Wy_vV2Rz7nk-5" value="Mettre en place la communication avec le robot" style="rounded=0;whiteSpace=wrap;html=1;" parent="1" vertex="1">
          <mxGeometry x="1030" y="340" width="170" height="40" as="geometry" />
        </mxCell>
        <mxCell id="5DaIw1ma8Wy_vV2Rz7nk-6" value="Envoyer message au moniteur" style="rounded=0;whiteSpace=wrap;html=1;" parent="1" vertex="1">
          <mxGeometry x="650" y="530" width="840" height="150" as="geometry" />
        </mxCell>
        <mxCell id="5DaIw1ma8Wy_vV2Rz7nk-7" value="Déplacer robot" style="rounded=0;whiteSpace=wrap;html=1;" parent="1" vertex="1">
          <mxGeometry x="670" y="40" width="110" height="30" as="geometry" />
        </mxCell>
        <mxCell id="5DaIw1ma8Wy_vV2Rz7nk-9" value="" style="html=1;labelBackgroundColor=#ffffff;startArrow=none;startFill=0;startSize=6;endArrow=classic;endFill=1;endSize=6;jettySize=auto;orthogonalLoop=1;strokeWidth=1;dashed=1;fontSize=14;rounded=0;entryX=0;entryY=0.5;entryDx=0;entryDy=0;" parent="1" target="5DaIw1ma8Wy_vV2Rz7nk-1" edge="1">
          <mxGeometry width="60" height="60" relative="1" as="geometry">
            <mxPoint x="73" y="325" as="sourcePoint" />
            <mxPoint x="313.33000000000004" y="190" as="targetPoint" />
          </mxGeometry>
        </mxCell>
        <mxCell id="5DaIw1ma8Wy_vV2Rz7nk-10" value="start" style="edgeLabel;html=1;align=center;verticalAlign=middle;resizable=0;points=[];" parent="5DaIw1ma8Wy_vV2Rz7nk-9" vertex="1" connectable="0">
          <mxGeometry x="0.4167" y="1" relative="1" as="geometry">
            <mxPoint x="-16" y="1" as="offset" />
          </mxGeometry>
        </mxCell>
        <mxCell id="5DaIw1ma8Wy_vV2Rz7nk-11" value="" style="html=1;labelBackgroundColor=#ffffff;startArrow=none;startFill=0;startSize=6;endArrow=classic;endFill=1;endSize=6;jettySize=auto;orthogonalLoop=1;strokeWidth=1;dashed=1;fontSize=14;rounded=0;entryX=0;entryY=0.5;entryDx=0;entryDy=0;exitX=1;exitY=0.5;exitDx=0;exitDy=0;" parent="1" source="5DaIw1ma8Wy_vV2Rz7nk-1" target="5DaIw1ma8Wy_vV2Rz7nk-2" edge="1">
          <mxGeometry width="60" height="60" relative="1" as="geometry">
            <mxPoint x="83.33000000000001" y="285" as="sourcePoint" />
            <mxPoint x="163.33" y="285" as="targetPoint" />
          </mxGeometry>
        </mxCell>
        <mxCell id="5DaIw1ma8Wy_vV2Rz7nk-12" value="serveur démarré" style="edgeLabel;html=1;align=center;verticalAlign=middle;resizable=0;points=[];" parent="5DaIw1ma8Wy_vV2Rz7nk-11" vertex="1" connectable="0">
          <mxGeometry x="0.4167" y="1" relative="1" as="geometry">
            <mxPoint as="offset" />
          </mxGeometry>
        </mxCell>
        <mxCell id="5DaIw1ma8Wy_vV2Rz7nk-13" value="" style="html=1;labelBackgroundColor=#ffffff;startArrow=none;startFill=0;startSize=6;endArrow=classic;endFill=1;endSize=6;jettySize=auto;orthogonalLoop=1;strokeWidth=1;dashed=1;fontSize=14;rounded=0;entryX=0;entryY=0.75;entryDx=0;entryDy=0;" parent="1" target="5DaIw1ma8Wy_vV2Rz7nk-2" edge="1">
          <mxGeometry width="60" height="60" relative="1" as="geometry">
            <mxPoint x="29.99666666666667" y="410" as="sourcePoint" />
            <mxPoint x="173.33" y="295" as="targetPoint" />
          </mxGeometry>
        </mxCell>
        <mxCell id="5DaIw1ma8Wy_vV2Rz7nk-14" value="ouvrir socket" style="edgeLabel;html=1;align=center;verticalAlign=middle;resizable=0;points=[];" parent="5DaIw1ma8Wy_vV2Rz7nk-13" vertex="1" connectable="0">
          <mxGeometry x="0.4167" y="1" relative="1" as="geometry">
            <mxPoint as="offset" />
          </mxGeometry>
        </mxCell>
        <mxCell id="5DaIw1ma8Wy_vV2Rz7nk-15" value="" style="html=1;labelBackgroundColor=#ffffff;startArrow=none;startFill=0;startSize=6;endArrow=classic;endFill=1;endSize=6;jettySize=auto;orthogonalLoop=1;strokeWidth=1;dashed=1;fontSize=14;rounded=0;entryX=0;entryY=0.5;entryDx=0;entryDy=0;exitX=1;exitY=0.5;exitDx=0;exitDy=0;" parent="1" source="5DaIw1ma8Wy_vV2Rz7nk-2" target="5DaIw1ma8Wy_vV2Rz7nk-3" edge="1">
          <mxGeometry width="60" height="60" relative="1" as="geometry">
            <mxPoint x="510" y="400" as="sourcePoint" />
            <mxPoint x="540" y="500" as="targetPoint" />
          </mxGeometry>
        </mxCell>
        <mxCell id="5DaIw1ma8Wy_vV2Rz7nk-16" value="connexion établie" style="edgeLabel;html=1;align=center;verticalAlign=middle;resizable=0;points=[];" parent="5DaIw1ma8Wy_vV2Rz7nk-15" vertex="1" connectable="0">
          <mxGeometry x="0.4167" y="1" relative="1" as="geometry">
            <mxPoint x="16" y="95" as="offset" />
          </mxGeometry>
        </mxCell>
        <mxCell id="5DaIw1ma8Wy_vV2Rz7nk-17" value="" style="html=1;labelBackgroundColor=#ffffff;startArrow=none;startFill=0;startSize=6;endArrow=classic;endFill=1;endSize=6;jettySize=auto;orthogonalLoop=1;strokeWidth=1;dashed=1;fontSize=14;rounded=0;exitX=1;exitY=0.5;exitDx=0;exitDy=0;entryX=0;entryY=0.5;entryDx=0;entryDy=0;" parent="1" source="5DaIw1ma8Wy_vV2Rz7nk-2" target="5DaIw1ma8Wy_vV2Rz7nk-6" edge="1">
          <mxGeometry width="60" height="60" relative="1" as="geometry">
            <mxPoint x="470" y="415" as="sourcePoint" />
            <mxPoint x="580" y="480" as="targetPoint" />
          </mxGeometry>
        </mxCell>
        <mxCell id="5DaIw1ma8Wy_vV2Rz7nk-19" value="" style="html=1;labelBackgroundColor=#ffffff;startArrow=none;startFill=0;startSize=6;endArrow=classic;endFill=1;endSize=6;jettySize=auto;orthogonalLoop=1;strokeWidth=1;dashed=1;fontSize=14;rounded=0;entryX=0.5;entryY=0;entryDx=0;entryDy=0;exitX=0.5;exitY=1;exitDx=0;exitDy=0;" parent="1" source="5DaIw1ma8Wy_vV2Rz7nk-3" target="5DaIw1ma8Wy_vV2Rz7nk-4" edge="1">
          <mxGeometry width="60" height="60" relative="1" as="geometry">
            <mxPoint x="480" y="425" as="sourcePoint" />
            <mxPoint x="530" y="270" as="targetPoint" />
          </mxGeometry>
        </mxCell>
        <mxCell id="5DaIw1ma8Wy_vV2Rz7nk-20" value="démarrer robot sans WD" style="edgeLabel;html=1;align=center;verticalAlign=middle;resizable=0;points=[];" parent="5DaIw1ma8Wy_vV2Rz7nk-19" vertex="1" connectable="0">
          <mxGeometry x="0.4167" y="1" relative="1" as="geometry">
            <mxPoint as="offset" />
          </mxGeometry>
        </mxCell>
        <mxCell id="5DaIw1ma8Wy_vV2Rz7nk-21" value="" style="html=1;labelBackgroundColor=#ffffff;startArrow=none;startFill=0;startSize=6;endArrow=classic;endFill=1;endSize=6;jettySize=auto;orthogonalLoop=1;strokeWidth=1;dashed=1;fontSize=14;rounded=0;entryX=0;entryY=0.5;entryDx=0;entryDy=0;exitX=1;exitY=0.5;exitDx=0;exitDy=0;" parent="1" source="5DaIw1ma8Wy_vV2Rz7nk-3" target="5DaIw1ma8Wy_vV2Rz7nk-5" edge="1">
          <mxGeometry width="60" height="60" relative="1" as="geometry">
            <mxPoint x="679.9999999999998" y="250" as="sourcePoint" />
            <mxPoint x="840" y="240" as="targetPoint" />
          </mxGeometry>
        </mxCell>
        <mxCell id="5DaIw1ma8Wy_vV2Rz7nk-22" value="ouvrir comRobot" style="edgeLabel;html=1;align=center;verticalAlign=middle;resizable=0;points=[];" parent="5DaIw1ma8Wy_vV2Rz7nk-21" vertex="1" connectable="0">
          <mxGeometry x="0.4167" y="1" relative="1" as="geometry">
            <mxPoint x="62" y="18" as="offset" />
          </mxGeometry>
        </mxCell>
        <mxCell id="5DaIw1ma8Wy_vV2Rz7nk-23" value="" style="html=1;labelBackgroundColor=#ffffff;startArrow=none;startFill=0;startSize=6;endArrow=classic;endFill=1;endSize=6;jettySize=auto;orthogonalLoop=1;strokeWidth=1;dashed=1;fontSize=14;rounded=0;entryX=0.5;entryY=0;entryDx=0;entryDy=0;exitX=0.25;exitY=1;exitDx=0;exitDy=0;" parent="1" source="5DaIw1ma8Wy_vV2Rz7nk-5" target="5DaIw1ma8Wy_vV2Rz7nk-6" edge="1">
          <mxGeometry width="60" height="60" relative="1" as="geometry">
            <mxPoint x="500" y="445" as="sourcePoint" />
            <mxPoint x="550" y="290" as="targetPoint" />
          </mxGeometry>
        </mxCell>
        <mxCell id="5DaIw1ma8Wy_vV2Rz7nk-24" value="messageToMon" style="edgeLabel;html=1;align=center;verticalAlign=middle;resizable=0;points=[];" parent="5DaIw1ma8Wy_vV2Rz7nk-23" vertex="1" connectable="0">
          <mxGeometry x="0.4167" y="1" relative="1" as="geometry">
            <mxPoint x="-47" as="offset" />
          </mxGeometry>
        </mxCell>
        <mxCell id="5DaIw1ma8Wy_vV2Rz7nk-25" value="" style="html=1;labelBackgroundColor=#ffffff;startArrow=none;startFill=0;startSize=6;endArrow=classic;endFill=1;endSize=6;jettySize=auto;orthogonalLoop=1;strokeWidth=1;dashed=1;fontSize=14;rounded=0;entryX=0.5;entryY=0;entryDx=0;entryDy=0;exitX=0.5;exitY=1;exitDx=0;exitDy=0;" parent="1" source="5DaIw1ma8Wy_vV2Rz7nk-4" target="5DaIw1ma8Wy_vV2Rz7nk-6" edge="1">
          <mxGeometry width="60" height="60" relative="1" as="geometry">
            <mxPoint x="510" y="455" as="sourcePoint" />
            <mxPoint x="560" y="300" as="targetPoint" />
          </mxGeometry>
        </mxCell>
        <mxCell id="5DaIw1ma8Wy_vV2Rz7nk-28" value="" style="endArrow=classic;html=1;rounded=0;entryX=0;entryY=0.5;entryDx=0;entryDy=0;" parent="1" target="5DaIw1ma8Wy_vV2Rz7nk-59" edge="1">
          <mxGeometry width="50" height="50" relative="1" as="geometry">
            <mxPoint x="160" y="210" as="sourcePoint" />
            <mxPoint x="430" y="260" as="targetPoint" />
          </mxGeometry>
        </mxCell>
        <mxCell id="5DaIw1ma8Wy_vV2Rz7nk-29" value="inputStream" style="edgeLabel;html=1;align=center;verticalAlign=middle;resizable=0;points=[];" parent="5DaIw1ma8Wy_vV2Rz7nk-28" vertex="1" connectable="0">
          <mxGeometry x="0.3957" y="2" relative="1" as="geometry">
            <mxPoint x="-13" y="-8" as="offset" />
          </mxGeometry>
        </mxCell>
        <mxCell id="5DaIw1ma8Wy_vV2Rz7nk-30" value="" style="startArrow=circle;endArrow=circle;html=1;rounded=0;exitX=0.25;exitY=0;exitDx=0;exitDy=0;entryX=0.25;entryY=1;entryDx=0;entryDy=0;" parent="1" source="5DaIw1ma8Wy_vV2Rz7nk-3" target="5DaIw1ma8Wy_vV2Rz7nk-7" edge="1">
          <mxGeometry width="50" height="50" relative="1" as="geometry">
            <mxPoint x="640" y="200" as="sourcePoint" />
            <mxPoint x="750" y="-80" as="targetPoint" />
          </mxGeometry>
        </mxCell>
        <mxCell id="5DaIw1ma8Wy_vV2Rz7nk-32" value="mouvement" style="edgeLabel;html=1;align=center;verticalAlign=middle;resizable=0;points=[];" parent="5DaIw1ma8Wy_vV2Rz7nk-30" vertex="1" connectable="0">
          <mxGeometry x="-0.2468" relative="1" as="geometry">
            <mxPoint as="offset" />
          </mxGeometry>
        </mxCell>
        <mxCell id="5DaIw1ma8Wy_vV2Rz7nk-33" value="" style="startArrow=circle;endArrow=circle;html=1;rounded=0;exitX=1;exitY=0;exitDx=0;exitDy=0;entryX=0.75;entryY=1;entryDx=0;entryDy=0;" parent="1" source="5DaIw1ma8Wy_vV2Rz7nk-4" target="5DaIw1ma8Wy_vV2Rz7nk-7" edge="1">
          <mxGeometry width="50" height="50" relative="1" as="geometry">
            <mxPoint x="770" y="180.0000000000001" as="sourcePoint" />
            <mxPoint x="740" y="90" as="targetPoint" />
          </mxGeometry>
        </mxCell>
        <mxCell id="5DaIw1ma8Wy_vV2Rz7nk-34" value="robot démarré" style="edgeLabel;html=1;align=center;verticalAlign=middle;resizable=0;points=[];" parent="5DaIw1ma8Wy_vV2Rz7nk-33" vertex="1" connectable="0">
          <mxGeometry x="-0.2468" relative="1" as="geometry">
            <mxPoint x="8" y="-102" as="offset" />
          </mxGeometry>
        </mxCell>
        <mxCell id="5DaIw1ma8Wy_vV2Rz7nk-35" value="" style="endArrow=classic;html=1;rounded=0;exitX=1;exitY=0.5;exitDx=0;exitDy=0;" parent="1" source="5DaIw1ma8Wy_vV2Rz7nk-6" edge="1">
          <mxGeometry width="50" height="50" relative="1" as="geometry">
            <mxPoint x="850" y="460.0000000000001" as="sourcePoint" />
            <mxPoint x="880" y="470" as="targetPoint" />
          </mxGeometry>
        </mxCell>
        <mxCell id="5DaIw1ma8Wy_vV2Rz7nk-36" value="outputStream" style="edgeLabel;html=1;align=center;verticalAlign=middle;resizable=0;points=[];" parent="5DaIw1ma8Wy_vV2Rz7nk-35" vertex="1" connectable="0">
          <mxGeometry x="0.3957" y="2" relative="1" as="geometry">
            <mxPoint x="-13" y="-8" as="offset" />
          </mxGeometry>
        </mxCell>
        <mxCell id="5DaIw1ma8Wy_vV2Rz7nk-43" value="" style="endArrow=none;html=1;rounded=0;exitX=1;exitY=0.5;exitDx=0;exitDy=0;" parent="1" source="5DaIw1ma8Wy_vV2Rz7nk-7" edge="1">
          <mxGeometry width="50" height="50" relative="1" as="geometry">
            <mxPoint x="870" y="300" as="sourcePoint" />
            <mxPoint x="970" as="targetPoint" />
          </mxGeometry>
        </mxCell>
        <mxCell id="5DaIw1ma8Wy_vV2Rz7nk-44" value="" style="endArrow=none;html=1;rounded=0;exitX=1;exitY=0.25;exitDx=0;exitDy=0;" parent="1" source="5DaIw1ma8Wy_vV2Rz7nk-4" edge="1">
          <mxGeometry width="50" height="50" relative="1" as="geometry">
            <mxPoint x="870" y="350" as="sourcePoint" />
            <mxPoint x="970" as="targetPoint" />
          </mxGeometry>
        </mxCell>
        <mxCell id="5DaIw1ma8Wy_vV2Rz7nk-45" value="" style="endArrow=classic;html=1;rounded=0;entryX=0;entryY=0.25;entryDx=0;entryDy=0;" parent="1" target="5DaIw1ma8Wy_vV2Rz7nk-66" edge="1">
          <mxGeometry width="50" height="50" relative="1" as="geometry">
            <mxPoint x="970" as="sourcePoint" />
            <mxPoint x="1030" y="-2.5000000000002274" as="targetPoint" />
          </mxGeometry>
        </mxCell>
        <mxCell id="5DaIw1ma8Wy_vV2Rz7nk-46" value="ordre" style="edgeLabel;html=1;align=center;verticalAlign=middle;resizable=0;points=[];" parent="5DaIw1ma8Wy_vV2Rz7nk-45" vertex="1" connectable="0">
          <mxGeometry x="0.6944" y="-4" relative="1" as="geometry">
            <mxPoint x="-16" y="-29" as="offset" />
          </mxGeometry>
        </mxCell>
        <mxCell id="5DaIw1ma8Wy_vV2Rz7nk-47" value="" style="endArrow=classic;html=1;rounded=0;entryX=1;entryY=0.5;entryDx=0;entryDy=0;exitX=0;exitY=0.5;exitDx=0;exitDy=0;" parent="1" source="5DaIw1ma8Wy_vV2Rz7nk-66" target="5DaIw1ma8Wy_vV2Rz7nk-4" edge="1">
          <mxGeometry width="50" height="50" relative="1" as="geometry">
            <mxPoint x="1030" y="44.99999999999977" as="sourcePoint" />
            <mxPoint x="1010" y="349.57" as="targetPoint" />
          </mxGeometry>
        </mxCell>
        <mxCell id="5DaIw1ma8Wy_vV2Rz7nk-48" value="réponse" style="edgeLabel;html=1;align=center;verticalAlign=middle;resizable=0;points=[];" parent="5DaIw1ma8Wy_vV2Rz7nk-47" vertex="1" connectable="0">
          <mxGeometry x="0.6944" y="-4" relative="1" as="geometry">
            <mxPoint x="332" y="-253" as="offset" />
          </mxGeometry>
        </mxCell>
        <mxCell id="5DaIw1ma8Wy_vV2Rz7nk-59" value="&lt;b&gt;Détecter la perte de communication avec le moniteur&lt;/b&gt;" style="rounded=0;whiteSpace=wrap;html=1;" parent="1" vertex="1">
          <mxGeometry x="235" y="180" width="170" height="60" as="geometry" />
        </mxCell>
        <mxCell id="5DaIw1ma8Wy_vV2Rz7nk-60" value="" style="endArrow=classic;html=1;rounded=0;entryX=0;entryY=0.25;entryDx=0;entryDy=0;exitX=1;exitY=0.5;exitDx=0;exitDy=0;" parent="1" source="5DaIw1ma8Wy_vV2Rz7nk-59" target="5DaIw1ma8Wy_vV2Rz7nk-3" edge="1">
          <mxGeometry width="50" height="50" relative="1" as="geometry">
            <mxPoint x="230" y="190.00000000000023" as="sourcePoint" />
            <mxPoint x="322.5" y="190.00000000000023" as="targetPoint" />
          </mxGeometry>
        </mxCell>
        <mxCell id="5DaIw1ma8Wy_vV2Rz7nk-61" value="inputStream" style="edgeLabel;html=1;align=center;verticalAlign=middle;resizable=0;points=[];" parent="5DaIw1ma8Wy_vV2Rz7nk-60" vertex="1" connectable="0">
          <mxGeometry x="0.3957" y="2" relative="1" as="geometry">
            <mxPoint x="-13" y="-8" as="offset" />
          </mxGeometry>
        </mxCell>
        <mxCell id="5DaIw1ma8Wy_vV2Rz7nk-66" value="&lt;b&gt;Détecter la perte de communication entre le robot et le superviseur&lt;/b&gt;" style="rounded=0;whiteSpace=wrap;html=1;" parent="1" vertex="1">
          <mxGeometry x="1190" y="-30" width="170" height="50" as="geometry" />
        </mxCell>
        <mxCell id="5DaIw1ma8Wy_vV2Rz7nk-67" value="" style="endArrow=classic;html=1;rounded=0;exitX=1;exitY=0.25;exitDx=0;exitDy=0;" parent="1" source="5DaIw1ma8Wy_vV2Rz7nk-66" edge="1">
          <mxGeometry width="50" height="50" relative="1" as="geometry">
            <mxPoint x="1240" y="-2.5000000000002274" as="sourcePoint" />
            <mxPoint x="1461.904761904762" y="-17" as="targetPoint" />
          </mxGeometry>
        </mxCell>
        <mxCell id="5DaIw1ma8Wy_vV2Rz7nk-68" value="ordre" style="edgeLabel;html=1;align=center;verticalAlign=middle;resizable=0;points=[];" parent="5DaIw1ma8Wy_vV2Rz7nk-67" vertex="1" connectable="0">
          <mxGeometry x="0.6944" y="-4" relative="1" as="geometry">
            <mxPoint x="-29" y="6" as="offset" />
          </mxGeometry>
        </mxCell>
        <mxCell id="5DaIw1ma8Wy_vV2Rz7nk-69" value="" style="endArrow=classic;html=1;rounded=0;entryX=1;entryY=0.75;entryDx=0;entryDy=0;" parent="1" target="5DaIw1ma8Wy_vV2Rz7nk-66" edge="1">
          <mxGeometry width="50" height="50" relative="1" as="geometry">
            <mxPoint x="1460" y="8" as="sourcePoint" />
            <mxPoint x="970" y="340.0000000000002" as="targetPoint" />
          </mxGeometry>
        </mxCell>
        <mxCell id="5DaIw1ma8Wy_vV2Rz7nk-71" value="réponse" style="edgeLabel;html=1;align=center;verticalAlign=middle;resizable=0;points=[];" parent="5DaIw1ma8Wy_vV2Rz7nk-69" vertex="1" connectable="0">
          <mxGeometry x="-0.3995" y="2" relative="1" as="geometry">
            <mxPoint x="-25" y="10" as="offset" />
          </mxGeometry>
        </mxCell>
        <mxCell id="5DaIw1ma8Wy_vV2Rz7nk-73" value="" style="html=1;labelBackgroundColor=#ffffff;startArrow=none;startFill=0;startSize=6;endArrow=classic;endFill=1;endSize=6;jettySize=auto;orthogonalLoop=1;strokeWidth=1;dashed=1;fontSize=14;rounded=0;entryX=0.5;entryY=0;entryDx=0;entryDy=0;exitX=0.5;exitY=1;exitDx=0;exitDy=0;" parent="1" source="5DaIw1ma8Wy_vV2Rz7nk-66" target="5DaIw1ma8Wy_vV2Rz7nk-6" edge="1">
          <mxGeometry width="60" height="60" relative="1" as="geometry">
            <mxPoint x="987.5" y="370.0000000000002" as="sourcePoint" />
            <mxPoint x="630" y="440.0000000000002" as="targetPoint" />
          </mxGeometry>
        </mxCell>
        <mxCell id="5DaIw1ma8Wy_vV2Rz7nk-74" value="messageToMon" style="edgeLabel;html=1;align=center;verticalAlign=middle;resizable=0;points=[];" parent="5DaIw1ma8Wy_vV2Rz7nk-73" vertex="1" connectable="0">
          <mxGeometry x="0.4167" y="1" relative="1" as="geometry">
            <mxPoint x="225" y="-199" as="offset" />
          </mxGeometry>
        </mxCell>
        <mxCell id="5DaIw1ma8Wy_vV2Rz7nk-75" value="&lt;b&gt;Démarrer robot avec WD&lt;/b&gt;" style="rounded=0;whiteSpace=wrap;html=1;" parent="1" vertex="1">
          <mxGeometry x="970" y="-210" width="150" height="40" as="geometry" />
        </mxCell>
        <mxCell id="5DaIw1ma8Wy_vV2Rz7nk-77" value="" style="endArrow=classic;html=1;rounded=0;entryX=0;entryY=0.25;entryDx=0;entryDy=0;exitX=0.75;exitY=1;exitDx=0;exitDy=0;" parent="1" source="5DaIw1ma8Wy_vV2Rz7nk-75" target="5DaIw1ma8Wy_vV2Rz7nk-66" edge="1">
          <mxGeometry width="50" height="50" relative="1" as="geometry">
            <mxPoint x="960" y="-156.25" as="sourcePoint" />
            <mxPoint x="1180" y="-173.75" as="targetPoint" />
          </mxGeometry>
        </mxCell>
        <mxCell id="5DaIw1ma8Wy_vV2Rz7nk-79" value="" style="endArrow=classic;html=1;rounded=0;entryX=0.25;entryY=1;entryDx=0;entryDy=0;exitX=0;exitY=0.5;exitDx=0;exitDy=0;" parent="1" source="5DaIw1ma8Wy_vV2Rz7nk-66" target="5DaIw1ma8Wy_vV2Rz7nk-75" edge="1">
          <mxGeometry width="50" height="50" relative="1" as="geometry">
            <mxPoint x="1000" y="-60" as="sourcePoint" />
            <mxPoint x="1050" y="-80" as="targetPoint" />
          </mxGeometry>
        </mxCell>
        <mxCell id="5DaIw1ma8Wy_vV2Rz7nk-83" value="" style="html=1;labelBackgroundColor=#ffffff;startArrow=none;startFill=0;startSize=6;endArrow=classic;endFill=1;endSize=6;jettySize=auto;orthogonalLoop=1;strokeWidth=1;dashed=1;fontSize=14;rounded=0;entryX=0.5;entryY=0;entryDx=0;entryDy=0;exitX=0.5;exitY=1;exitDx=0;exitDy=0;" parent="1" source="5DaIw1ma8Wy_vV2Rz7nk-75" target="5DaIw1ma8Wy_vV2Rz7nk-6" edge="1">
          <mxGeometry width="60" height="60" relative="1" as="geometry">
            <mxPoint x="1030" y="-80" as="sourcePoint" />
            <mxPoint x="470" y="350" as="targetPoint" />
          </mxGeometry>
        </mxCell>
        <mxCell id="5DaIw1ma8Wy_vV2Rz7nk-84" value="messageToMon" style="edgeLabel;html=1;align=center;verticalAlign=middle;resizable=0;points=[];" parent="5DaIw1ma8Wy_vV2Rz7nk-83" vertex="1" connectable="0">
          <mxGeometry x="0.4167" y="1" relative="1" as="geometry">
            <mxPoint x="225" y="-199" as="offset" />
          </mxGeometry>
        </mxCell>
      </root>
    </mxGraphModel>
  </diagram>
</mxfile>
